<mxfile host="app.diagrams.net" modified="2024-01-15T00:15:54.952Z" agent="Mozilla/5.0 (X11; Linux x86_64; rv:121.0) Gecko/20100101 Firefox/121.0" etag="F4O5rNm6HzlkIE-jExLN" version="22.1.18" type="github">
  <diagram id="C5RBs43oDa-KdzZeNtuy" name="Page-1">
    <mxGraphModel dx="1195" dy="594" grid="1" gridSize="10" guides="1" tooltips="1" connect="1" arrows="1" fold="1" page="1" pageScale="1" pageWidth="827" pageHeight="1169" math="0" shadow="0">
      <root>
        <mxCell id="WIyWlLk6GJQsqaUBKTNV-0" />
        <mxCell id="WIyWlLk6GJQsqaUBKTNV-1" parent="WIyWlLk6GJQsqaUBKTNV-0" />
        <mxCell id="wCRdzUAUGNFTLwiFJrkR-3" style="edgeStyle=orthogonalEdgeStyle;rounded=0;orthogonalLoop=1;jettySize=auto;html=1;exitX=0.5;exitY=1;exitDx=0;exitDy=0;entryX=0.5;entryY=0;entryDx=0;entryDy=0;" edge="1" parent="WIyWlLk6GJQsqaUBKTNV-1" source="wCRdzUAUGNFTLwiFJrkR-1">
          <mxGeometry relative="1" as="geometry">
            <mxPoint x="220" y="160" as="targetPoint" />
          </mxGeometry>
        </mxCell>
        <mxCell id="wCRdzUAUGNFTLwiFJrkR-1" value="Begin" style="ellipse;whiteSpace=wrap;html=1;" vertex="1" parent="WIyWlLk6GJQsqaUBKTNV-1">
          <mxGeometry x="180" y="60" width="80" height="50" as="geometry" />
        </mxCell>
        <mxCell id="wCRdzUAUGNFTLwiFJrkR-5" value="End" style="ellipse;whiteSpace=wrap;html=1;" vertex="1" parent="WIyWlLk6GJQsqaUBKTNV-1">
          <mxGeometry x="180" y="620" width="80" height="50" as="geometry" />
        </mxCell>
        <mxCell id="wCRdzUAUGNFTLwiFJrkR-17" value="" style="edgeStyle=orthogonalEdgeStyle;rounded=0;orthogonalLoop=1;jettySize=auto;html=1;" edge="1" parent="WIyWlLk6GJQsqaUBKTNV-1" source="wCRdzUAUGNFTLwiFJrkR-14" target="wCRdzUAUGNFTLwiFJrkR-16">
          <mxGeometry relative="1" as="geometry" />
        </mxCell>
        <mxCell id="wCRdzUAUGNFTLwiFJrkR-14" value="Send angle to axis 1" style="rounded=0;whiteSpace=wrap;html=1;" vertex="1" parent="WIyWlLk6GJQsqaUBKTNV-1">
          <mxGeometry x="160" y="130" width="120" height="60" as="geometry" />
        </mxCell>
        <mxCell id="wCRdzUAUGNFTLwiFJrkR-19" value="" style="edgeStyle=orthogonalEdgeStyle;rounded=0;orthogonalLoop=1;jettySize=auto;html=1;" edge="1" parent="WIyWlLk6GJQsqaUBKTNV-1" source="wCRdzUAUGNFTLwiFJrkR-16" target="wCRdzUAUGNFTLwiFJrkR-18">
          <mxGeometry relative="1" as="geometry" />
        </mxCell>
        <mxCell id="wCRdzUAUGNFTLwiFJrkR-16" value="Send angle to axis 2" style="rounded=0;whiteSpace=wrap;html=1;" vertex="1" parent="WIyWlLk6GJQsqaUBKTNV-1">
          <mxGeometry x="160" y="210" width="120" height="60" as="geometry" />
        </mxCell>
        <mxCell id="wCRdzUAUGNFTLwiFJrkR-23" style="edgeStyle=orthogonalEdgeStyle;rounded=0;orthogonalLoop=1;jettySize=auto;html=1;exitX=0.5;exitY=1;exitDx=0;exitDy=0;entryX=0.5;entryY=0;entryDx=0;entryDy=0;" edge="1" parent="WIyWlLk6GJQsqaUBKTNV-1" source="wCRdzUAUGNFTLwiFJrkR-18" target="wCRdzUAUGNFTLwiFJrkR-20">
          <mxGeometry relative="1" as="geometry" />
        </mxCell>
        <mxCell id="wCRdzUAUGNFTLwiFJrkR-18" value="Send angle to axis 3" style="rounded=0;whiteSpace=wrap;html=1;" vertex="1" parent="WIyWlLk6GJQsqaUBKTNV-1">
          <mxGeometry x="160" y="290" width="120" height="60" as="geometry" />
        </mxCell>
        <mxCell id="wCRdzUAUGNFTLwiFJrkR-22" value="" style="edgeStyle=orthogonalEdgeStyle;rounded=0;orthogonalLoop=1;jettySize=auto;html=1;" edge="1" parent="WIyWlLk6GJQsqaUBKTNV-1" source="wCRdzUAUGNFTLwiFJrkR-20" target="wCRdzUAUGNFTLwiFJrkR-21">
          <mxGeometry relative="1" as="geometry" />
        </mxCell>
        <mxCell id="wCRdzUAUGNFTLwiFJrkR-20" value="Send angle to axis 4" style="rounded=0;whiteSpace=wrap;html=1;" vertex="1" parent="WIyWlLk6GJQsqaUBKTNV-1">
          <mxGeometry x="160" y="370" width="120" height="60" as="geometry" />
        </mxCell>
        <mxCell id="wCRdzUAUGNFTLwiFJrkR-25" value="" style="edgeStyle=orthogonalEdgeStyle;rounded=0;orthogonalLoop=1;jettySize=auto;html=1;" edge="1" parent="WIyWlLk6GJQsqaUBKTNV-1" source="wCRdzUAUGNFTLwiFJrkR-21" target="wCRdzUAUGNFTLwiFJrkR-24">
          <mxGeometry relative="1" as="geometry" />
        </mxCell>
        <mxCell id="wCRdzUAUGNFTLwiFJrkR-21" value="Send angle to axis 5" style="rounded=0;whiteSpace=wrap;html=1;" vertex="1" parent="WIyWlLk6GJQsqaUBKTNV-1">
          <mxGeometry x="160" y="450" width="120" height="60" as="geometry" />
        </mxCell>
        <mxCell id="wCRdzUAUGNFTLwiFJrkR-26" style="edgeStyle=orthogonalEdgeStyle;rounded=0;orthogonalLoop=1;jettySize=auto;html=1;exitX=0.5;exitY=1;exitDx=0;exitDy=0;entryX=0.5;entryY=0;entryDx=0;entryDy=0;" edge="1" parent="WIyWlLk6GJQsqaUBKTNV-1" source="wCRdzUAUGNFTLwiFJrkR-24" target="wCRdzUAUGNFTLwiFJrkR-5">
          <mxGeometry relative="1" as="geometry" />
        </mxCell>
        <mxCell id="wCRdzUAUGNFTLwiFJrkR-24" value="Send angle to axis 6" style="rounded=0;whiteSpace=wrap;html=1;" vertex="1" parent="WIyWlLk6GJQsqaUBKTNV-1">
          <mxGeometry x="160" y="530" width="120" height="60" as="geometry" />
        </mxCell>
      </root>
    </mxGraphModel>
  </diagram>
</mxfile>
